<svg width="23" height="25" viewBox="0 0 23 25" fill="none" xmlns="http://www.w3.org/2000/svg">
<path d="M20.9127 7.94497C20.8246 7.81592 20.7069 7.71044 20.5697 7.63756C20.4325 7.56469 20.2799 7.52659 20.125 7.52654H7.02742L5.9215 4.83732C5.77649 4.48318 5.53095 4.18064 5.216 3.96805C4.90105 3.75545 4.53088 3.64239 4.15242 3.64319H1.91663V5.58487H4.15242L8.69875 16.6378C8.77157 16.8147 8.89442 16.9657 9.05182 17.072C9.20923 17.1782 9.39415 17.2349 9.58329 17.2349H17.25C17.6496 17.2349 18.007 16.9835 18.1479 16.6058L21.0229 8.83911C21.0773 8.69215 21.0956 8.53403 21.0764 8.3783C21.0572 8.22258 21.0011 8.07389 20.9127 7.94497ZM16.5858 15.2932H10.2225L7.82667 9.46821H18.7421L16.5858 15.2932Z" fill="black"/>
<path d="M10.0625 21.1183C10.8564 21.1183 11.5 20.4663 11.5 19.662C11.5 18.8577 10.8564 18.2057 10.0625 18.2057C9.26859 18.2057 8.625 18.8577 8.625 19.662C8.625 20.4663 9.26859 21.1183 10.0625 21.1183Z" fill="black"/>
<path d="M16.7709 21.1183C17.5648 21.1183 18.2084 20.4663 18.2084 19.662C18.2084 18.8577 17.5648 18.2057 16.7709 18.2057C15.977 18.2057 15.3334 18.8577 15.3334 19.662C15.3334 20.4663 15.977 21.1183 16.7709 21.1183Z" fill="black"/>
</svg>
