<svg width="61" height="61" viewBox="0 0 61 61" fill="none" xmlns="http://www.w3.org/2000/svg">
<circle cx="30.5" cy="30.5" r="30" stroke="#515151"/>
<path d="M16.112 43.784C15.3653 43.784 14.6507 43.6773 13.968 43.464C13.3067 43.272 12.7307 42.8453 12.24 42.184C12.304 41.672 12.4533 40.9253 12.688 39.944C12.944 38.9627 13.2533 37.8533 13.616 36.616C13.9787 35.3573 14.3627 34.0667 14.768 32.744C15.1733 31.4213 15.568 30.1627 15.952 28.968C16.3573 27.752 16.7093 26.696 17.008 25.8C17.328 24.8827 17.5627 24.2213 17.712 23.816C17.776 23.6453 17.8827 23.3893 18.032 23.048C18.1813 22.7067 18.3733 22.3547 18.608 21.992C18.8427 21.6293 19.1093 21.3307 19.408 21.096C19.728 20.84 20.0693 20.712 20.432 20.712C20.7947 20.712 21.2 20.8613 21.648 21.16C20.9867 22.6533 20.3147 24.3173 19.632 26.152C18.9707 27.9653 18.3307 29.8427 17.712 31.784C17.1147 33.704 16.56 35.5813 16.048 37.416C15.5573 39.2293 15.152 40.8933 14.832 42.408C15.0027 42.472 15.2373 42.5147 15.536 42.536C15.856 42.5787 16.1547 42.6 16.432 42.6C17.8187 42.6 19.1413 42.2587 20.4 41.576C21.6587 40.9147 22.8107 40.0293 23.856 38.92C24.9227 37.7893 25.8507 36.5307 26.64 35.144C27.4293 33.736 28.0373 32.296 28.464 30.824C28.8907 29.352 29.104 27.944 29.104 26.6C29.104 24.872 28.8053 23.4747 28.208 22.408C27.632 21.32 26.832 20.5307 25.808 20.04C24.784 19.528 23.6107 19.272 22.288 19.272C20.9013 19.272 19.6533 19.528 18.544 20.04C17.4347 20.5307 16.56 21.2133 15.92 22.088C15.3013 22.9413 14.992 23.9227 14.992 25.032C14.992 25.2667 15.0133 25.5227 15.056 25.8C15.0987 26.056 15.1733 26.312 15.28 26.568C14.3627 26.568 13.7013 26.376 13.296 25.992C12.912 25.5867 12.72 25.096 12.72 24.52C12.72 23.7733 12.9867 23.016 13.52 22.248C14.0747 21.48 14.832 20.776 15.792 20.136C16.7733 19.4747 17.904 18.952 19.184 18.568C20.464 18.1627 21.8507 17.96 23.344 17.96C25.4347 17.96 27.1093 18.3653 28.368 19.176C29.6267 19.9653 30.5333 21.0427 31.088 22.408C31.664 23.752 31.952 25.256 31.952 26.92C31.952 28.7547 31.6533 30.5147 31.056 32.2C30.48 33.864 29.6693 35.4 28.624 36.808C27.6 38.216 26.4053 39.4427 25.04 40.488C23.696 41.5333 22.256 42.344 20.72 42.92C19.2053 43.496 17.6693 43.784 16.112 43.784ZM37.9848 43.784C36.8541 43.6987 36.1074 43.4213 35.7448 42.952C35.4034 42.4827 35.2328 41.896 35.2328 41.192C35.2328 40.4027 35.3714 39.4533 35.6488 38.344C35.9261 37.2347 36.2888 36.0507 36.7368 34.792C37.1848 33.5333 37.6754 32.2853 38.2088 31.048C37.9741 31.0693 37.6008 31.1013 37.0888 31.144C36.5981 31.1867 36.0861 31.24 35.5528 31.304C35.0408 31.3467 34.6248 31.4 34.3048 31.464C34.3688 30.8027 34.6141 30.2907 35.0408 29.928C35.4888 29.544 36.0541 29.2667 36.7368 29.096C37.4408 28.9253 38.1981 28.8293 39.0088 28.808C39.5634 27.272 40.1288 25.7787 40.7048 24.328C41.3021 22.856 41.8994 21.512 42.4968 20.296C42.3688 20.2747 42.2194 20.264 42.0488 20.264C41.8781 20.2427 41.6434 20.232 41.3448 20.232C40.0434 20.232 39.0301 20.3707 38.3048 20.648C37.6008 20.9253 37.1101 21.32 36.8328 21.832C36.5768 22.344 36.4488 22.9733 36.4488 23.72C36.4488 24.2533 36.5021 24.744 36.6088 25.192C36.7154 25.6187 36.8754 26.088 37.0888 26.6C36.0861 26.4293 35.3714 26.1093 34.9448 25.64C34.5181 25.1493 34.3048 24.5413 34.3048 23.816C34.3048 22.7067 34.7101 21.7253 35.5208 20.872C36.3528 20.0187 37.4621 19.3467 38.8488 18.856C40.2568 18.3653 41.8354 18.12 43.5848 18.12C44.7154 18.12 45.8461 18.1947 46.9768 18.344C48.1074 18.4933 49.1634 18.568 50.1448 18.568C50.6781 18.568 51.1901 18.536 51.6808 18.472C52.1714 18.3867 52.7368 18.2587 53.3768 18.088C52.3528 19.2187 51.5101 19.976 50.8488 20.36C50.2088 20.744 49.5794 20.936 48.9608 20.936C48.4488 20.936 47.7874 20.872 46.9768 20.744C46.1661 20.5947 45.2914 20.488 44.3528 20.424C43.9261 21.448 43.4674 22.7067 42.9768 24.2C42.4861 25.672 41.9848 27.2187 41.4728 28.84C42.5821 28.9253 43.5848 29.0213 44.4808 29.128C45.3768 29.2347 46.3688 29.3093 47.4568 29.352C47.2008 29.6933 46.9341 29.9707 46.6568 30.184C46.4008 30.376 46.0488 30.5147 45.6008 30.6C45.1741 30.6853 44.5768 30.7493 43.8088 30.792C43.0621 30.8347 42.0808 30.8667 40.8648 30.888C40.6941 31.528 40.5128 32.1787 40.3208 32.84C40.1288 33.5013 39.9581 34.0667 39.8088 34.536C39.6808 35.0053 39.5954 35.2933 39.5528 35.4C38.9554 37.448 38.5394 39.1227 38.3048 40.424C38.0914 41.704 37.9848 42.824 37.9848 43.784Z" fill="#515151"/>
</svg>
